<?xml version="1.0" encoding="UTF-8" standalone="no"?>
<svg
   xmlns:dc="http://purl.org/dc/elements/1.1/"
   xmlns:cc="http://creativecommons.org/ns#"
   xmlns:rdf="http://www.w3.org/1999/02/22-rdf-syntax-ns#"
   xmlns:svg="http://www.w3.org/2000/svg"
   xmlns="http://www.w3.org/2000/svg"
   width="297mm"
   height="210mm"
   viewBox="0 0 297 210"
   version="1.1"
   id="svg8">
  <defs
     id="defs2" />
  <metadata
     id="metadata5">
    <rdf:RDF>
      <cc:Work
         rdf:about="">
        <dc:format>image/svg+xml</dc:format>
        <dc:type
           rdf:resource="http://purl.org/dc/dcmitype/StillImage" />
        <dc:title></dc:title>
      </cc:Work>
    </rdf:RDF>
  </metadata>
  <g
     id="layer1">
    <g
       id="g941"
       transform="translate(9.8301408,-17.872983)">
      <path
         style="fill:#000000;fill-opacity:1;stroke:none;stroke-width:0.264583px;stroke-linecap:butt;stroke-linejoin:miter;stroke-opacity:1"
         d="m 37.237676,73.587619 1.191276,-19.656039 7.44547,15.486579 8.041108,-1.48909 6.254194,3.276 8.636746,-16.082213 1.595743,11.744338 -2.191381,9.996435 1.191276,7.44547 -8.389548,5.702328 -2.949922,5.906647 -7.764719,2.288138 -6.086812,-2.745575 -2.839993,-6.909101 -7.409443,-7.220627 z"
         id="path833" />
      <path
         style="fill:#684b0d;fill-opacity:1;stroke:none;stroke-width:0.264583px;stroke-linecap:butt;stroke-linejoin:miter;stroke-opacity:1"
         d="m 57.279561,83.556329 1.733957,-3.12414 2.456123,-1.19317 3.306799,0.48274 -3.150879,2.82602 z"
         id="path835" />
      <path
         style="fill:#684b0d;fill-opacity:1;stroke:none;stroke-width:0.264583px;stroke-linecap:butt;stroke-linejoin:miter;stroke-opacity:1"
         d="m 46.71653,83.227919 -1.264483,-3.34185 -2.258007,-1.53544 h -3.341849 l 2.709608,3.25152 z"
         id="path835-7" />
      <path
         style="fill:none;stroke:#000000;stroke-width:0.565;stroke-linecap:butt;stroke-linejoin:miter;stroke-miterlimit:4;stroke-dasharray:none;stroke-opacity:1"
         d="m 42.561799,81.602149 1.866339,-2.44915"
         id="path857" />
      <path
         style="fill:none;stroke:#000000;stroke-width:0.565;stroke-linecap:butt;stroke-linejoin:miter;stroke-miterlimit:4;stroke-dasharray:none;stroke-opacity:1"
         d="m 61.625561,82.547779 -1.49298,-2.69306"
         id="path857-0" />
      <path
         style="fill:none;stroke:#ffffff;stroke-width:0.565;stroke-linecap:butt;stroke-linejoin:miter;stroke-miterlimit:4;stroke-dasharray:none;stroke-opacity:1"
         d="m 48.897046,92.737842 2.037625,-0.679204 1.93313,1.044934 -1.46291,1.410651 h -1.253922 z"
         id="path879" />
    </g>
    <g
       id="g971"
       transform="translate(9.8301408,-17.872983)">
      <path
         style="fill:#000000;fill-opacity:1;stroke:none;stroke-width:0.264583px;stroke-linecap:butt;stroke-linejoin:miter;stroke-opacity:1"
         d="m 65.052442,101.56251 2.7938,11.40802 6.9845,13.03773 0.46563,2.7938 -17.22844,12.5721 -13.037729,16.52998 3.026616,3.49225 6.9845,0.93127 14.900273,-15.13308 16.762793,-17.22844 1.16408,-3.49225 -1.3969,-3.49225 -6.286043,-12.33928 -6.9845,-11.175197 z"
         id="path881-5" />
      <path
         style="fill:#000000;fill-opacity:1;stroke:none;stroke-width:0.264583px;stroke-linecap:butt;stroke-linejoin:miter;stroke-opacity:1"
         d="m 45.511566,156.98193 -6.760776,-0.98939 -6.595877,2.47346 -3.896301,4.54649 1.154279,1.81387 1.319176,-0.3298 2.742021,-3.722 5.606497,-2.47346 1.813867,0.98938 -6.430984,2.47346 -3.401606,4.38159 0.98938,1.31918 1.319178,0.32979 2.906915,-4.21669 5.276705,-2.14366 1.978763,0.98938 0.164896,0.32979 -5.771393,2.14366 -3.071814,3.8869 1.648971,1.31918 h 1.154279 l 2.412223,-3.55711 5.771396,-2.63835 2.638351,2.47345 -1.484072,2.96815 -5.4416,1.48407 -0.329796,1.31918 1.648971,0.65959 6.266085,-1.97877 3.79263,-3.79263 2.968146,-5.2767 z"
         id="path943" />
    </g>
    <g
       id="g967"
       transform="translate(3.2118682,-22.17486)">
      <path
         style="fill:#000000;fill-opacity:1;stroke:none;stroke-width:0.264583px;stroke-linecap:butt;stroke-linejoin:miter;stroke-opacity:1"
         d="m 96.98616,118.40864 2.793797,11.40802 6.984503,13.03773 0.46563,2.7938 -17.228434,12.5721 -13.037732,16.52998 3.026616,3.49225 6.9845,0.93127 14.90027,-15.13308 16.76279,-17.22844 1.16408,-3.49225 -1.3969,-3.49225 -6.28605,-12.33928 -6.98449,-11.1752 z"
         id="path881" />
      <path
         style="fill:#000000;fill-opacity:1;stroke:none;stroke-width:0.264583px;stroke-linecap:butt;stroke-linejoin:miter;stroke-opacity:1"
         d="m 81.034798,181.52406 5.668342,-0.44676 1.751468,-4.61768 -10.38851,-4.78201 -6.760776,-0.98939 -6.595877,2.47346 -4.45222,5.9363 1.154279,1.81387 1.319175,-0.3298 3.297941,-5.11181 5.606497,-2.47346 1.813867,0.98938 -6.430984,2.47346 -3.957526,5.7714 0.98938,1.31918 1.319178,0.32979 3.462835,-5.6065 5.276705,-2.14366 1.978763,0.98938 0.164896,0.32979 -5.771393,2.14367 -3.627734,5.2767 1.648971,1.31918 h 1.154279 l 2.968143,-4.94691 5.771396,-2.63836 1.269589,1.20609"
         id="path943-9" />
    </g>
    <g
       id="g997"
       transform="translate(9.8301408,-17.872983)">
      <path
         style="fill:#000000;fill-opacity:1;stroke:none;stroke-width:0.264583px;stroke-linecap:butt;stroke-linejoin:miter;stroke-opacity:1"
         d="m 131.97325,98.160908 -5.9489,18.546542 3.14941,10.848 7.69858,6.29883 -0.34993,4.54916 -4.19923,6.64877 -8.74838,15.7471 3.14942,4.89909 h 6.99871 l 8.04851,-12.59767 6.64877,-14.69729 -1.0498,-8.39845 -2.79948,-2.79948 -2.09962,-5.24903 4.52489,-12.4868 2.12388,-12.008643 z"
         id="path903" />
      <path
         style="fill:#000000;fill-opacity:1;stroke:none;stroke-width:0.264583px;stroke-linecap:butt;stroke-linejoin:miter;stroke-opacity:1"
         d="m 124.22791,160.01951 5.80676,0.39637 5.16603,2.55154 -0.53182,7.95349 -2.58995,3.09912 -5.45371,2.32026 -9.11351,7.3148 -4.08744,1.83401 -1.40789,-1.1584 3.06026,-1.72245 3.6631,-2.06831 -1.37891,-0.34067 -6.51268,3.28699 -2.00551,-0.53638 0.17403,-1.30271 3.6605,-1.50644 3.12574,-2.61463 -1.1767,-0.65481 -4.598,3.00778 -1.91913,0.38099 -1.1115,-1.46702 1.63131,-0.84362 1.89294,-0.77491 3.0223,-1.54384 -0.91305,-1.16062 -2.33497,1.36199 -2.85475,1.06165 -0.0384,-2.0669 3.52426,-1.61854 5.14803,-1.12948 2.76435,-2.15058 z"
         id="path973" />
    </g>
    <g
       id="g1001"
       transform="translate(9.8301408,-17.872983)">
      <path
         style="fill:#000000;fill-opacity:1;stroke:none;stroke-width:0.264583px;stroke-linecap:butt;stroke-linejoin:miter;stroke-opacity:1"
         d="m 159.02578,105.64471 -5.9489,18.54658 3.14941,10.848 7.69858,6.29883 -0.34993,4.54916 -4.19923,6.64877 -8.74838,15.7471 3.14942,4.89909 h 6.99871 l 8.04851,-12.59767 6.64877,-14.69729 -1.0498,-8.39845 -2.79948,-2.79948 -2.09962,-5.24903 6.99871,-11.8978 -0.34994,-12.59768 z"
         id="path903-4" />
      <path
         style="fill:#000000;fill-opacity:1;stroke:none;stroke-width:0.264583px;stroke-linecap:butt;stroke-linejoin:miter;stroke-opacity:1"
         d="m 151.19173,167.29213 5.80676,0.39637 5.16603,2.55154 -0.53182,7.95349 -2.58995,3.09912 -5.45371,2.32026 -9.11351,7.3148 -4.08744,1.83401 -1.40789,-1.1584 3.06026,-1.72245 3.6631,-2.06831 -1.37891,-0.34067 -6.51268,3.28699 -2.00551,-0.53638 0.17403,-1.30271 3.6605,-1.50644 3.12574,-2.61463 -1.1767,-0.65481 -4.598,3.00778 -1.91913,0.38099 -1.1115,-1.46702 1.63131,-0.84362 1.89294,-0.77491 3.0223,-1.54384 -0.91305,-1.16062 -2.33497,1.36199 -2.85475,1.06165 -0.0384,-2.0669 3.52426,-1.61854 5.14803,-1.12948 2.76435,-2.15058 z"
         id="path973-9" />
    </g>
    <g
       id="g1007"
       transform="translate(9.8301408,-17.872983)">
      <path
         style="fill:#000000;fill-opacity:1;stroke:none;stroke-width:0.246334px;stroke-linecap:butt;stroke-linejoin:miter;stroke-opacity:1"
         d="m 66.122636,74.140596 11.366782,2.521789 10.307493,6.716651 19.639609,-4.699219 29.50991,-3.782684 30.60288,5.043577 13.5527,11.34805 0.43717,14.12202 -6.12057,11.09587 -8.30649,3.27833 -5.90198,-6.30448 -3.66503,-4.06977 -3.02754,0.82284 -6.2724,1.71376 -10.88117,2.44575 -12.74696,-3.82794 -6.77635,1.00872 -9.33082,4.08011 -9.379849,3.87883 -11.803965,2.01743 -10.492414,-3.78268 -8.087903,-6.55665 -8.306494,-10.59152 -2.18592,-9.834976 z"
         id="path933" />
      <path
         style="fill:#000000;fill-opacity:1;stroke:none;stroke-width:0.264583px;stroke-linecap:butt;stroke-linejoin:miter;stroke-opacity:1"
         d="m 173.8821,86.26917 18.00633,9.406295 27.68139,8.062535 19.88759,19.3501 3.76252,27.14388 -15.05007,30.3689 -28.48764,7.79379 -6.45003,-3.22502 7.79379,-6.71878 13.70631,-10.75005 3.76252,-12.09382 -9.67505,-14.24382 -11.0188,-10.75004 -4.56877,-13.16882 -6.98754,-11.28755 -5.64377,-4.83753 z"
         id="path1003" />
    </g>
    <path
       style="fill:none;stroke:#ffffff;stroke-width:0.565;stroke-linecap:butt;stroke-linejoin:miter;stroke-miterlimit:4;stroke-dasharray:none;stroke-opacity:1"
       d="m 57.289918,79.299604 3.301452,-0.776812 2.783579,0.971014"
       id="path1038" />
  </g>
  <g
     id="layer2">
    <path
       style="fill:#414141;fill-opacity:1;stroke:none;stroke-width:0.264583px;stroke-linecap:butt;stroke-linejoin:miter;stroke-opacity:1"
       d="m 131.98648,58.259656 16.24052,-2.062289 29.38761,5.671293 12.11595,10.311445 2.57786,16.240522 -5.15572,8.764727 0.51557,3.866786 -7.73358,10.82702 2.06229,4.64015 3.09343,2.83565 1.54672,9.02251 -7.4758,15.98274 -5.41351,7.73358 h -7.73358 l -5.15572,-4.12458 12.37373,-20.3651 v -3.86679 l -8.50694,-6.44465 -2.83565,-10.56923 5.13354,-14.722871 -3.26249,1.591083 -5.15572,1.2253 -2.57786,-0.515572 -3.15998,9.8442 2.32007,5.15572 2.83565,2.57786 1.54672,9.79587 -7.99137,15.72495 -6.18687,8.76473 h -5.15572 l -4.64015,-1.8045 -2.83565,-2.57786 12.88931,-21.91182 -0.25779,-3.60901 -7.99137,-6.18686 -2.32007,-11.084802 2.57786,-5.155724 z"
       id="path1012" />
    <path
       style="fill:#98ae91;fill-opacity:1;stroke:none;stroke-width:0.264583px;stroke-linecap:butt;stroke-linejoin:miter;stroke-opacity:1"
       d="m 69.689583,81.651961 12.949094,-10.50939 3.332205,-13.662041 3.165594,0.833051 8.66373,5.831359 19.660004,-4.665086 31.32273,-3.832037 8.2864,9.039097 3.69331,14.564457 -0.5679,12.703867 -0.3443,2.545041 -12.35703,1.041153 -12.87235,-1.07343 -7.16424,1.332883 -12.9956,5.331525 9.49678,17.49408 -0.49983,5.33152 -4.9983,2.33255 -5.99797,-1.33289 -3.1656,-2.16593 -0.99966,-2.66576 -5.83136,-10.99628 -1.33288,-4.99831 -3.832033,0.49984 -1.166273,-0.66644 2.832375,4.49847 -1.332883,4.66509 -5.831359,2.16593 -5.997966,-2.16593 -1.999324,-2.83238 -0.166611,-1.83271 -7.33085,-12.828986 -0.999662,-5.164918 -5.831356,-7.33085 z"
       id="path1010" />
  </g>
</svg>
